<svg width="245" height="46" viewBox="0 0 245 46" fill="none" xmlns="http://www.w3.org/2000/svg">
<path d="M12.6883 31.885C10.3095 31.885 8.17565 31.4915 6.28756 30.7041C4.39946 29.8794 2.90785 28.7546 1.81272 27.33C0.717583 25.8681 0.113237 24.1996 0 22.3253H5.32458C5.47567 23.8621 6.19324 25.118 7.477 26.0929C8.79891 27.0675 10.517 27.5551 12.6319 27.5551C14.5954 27.5551 16.1438 27.124 17.2767 26.2616C18.4094 25.3993 18.9759 24.3121 18.9759 23.0001C18.9759 21.6505 18.3719 20.6568 17.1632 20.0196C15.9548 19.3448 14.0856 18.6888 11.5554 18.0513C9.25186 17.4514 7.36377 16.8515 5.89108 16.252C4.45593 15.6145 3.20971 14.696 2.15242 13.4963C1.13298 12.2592 0.622961 10.6471 0.622961 8.66028C0.622961 7.08551 1.09513 5.64212 2.03918 4.33008C2.98323 3.01795 4.32376 1.98698 6.06108 1.23718C7.79809 0.449887 9.78051 0.0562555 12.0086 0.0562555C15.4451 0.0562555 18.2208 0.918496 20.3354 2.64304C22.4502 4.36758 23.5832 6.72929 23.734 9.72864H18.5794C18.4662 8.11654 17.8054 6.82305 16.597 5.84845C15.4262 4.8737 13.8403 4.3863 11.8386 4.3863C9.98836 4.3863 8.51567 4.77997 7.42054 5.56717C6.3254 6.35456 5.77784 7.38559 5.77784 8.66028C5.77784 9.6725 6.09863 10.516 6.74081 11.1908C7.42054 11.828 8.25135 12.353 9.23294 12.7653C10.2527 13.14 11.65 13.5712 13.4248 14.0588C15.653 14.6584 17.4654 15.2582 18.8627 15.8581C20.26 16.4207 21.4494 17.2827 22.4313 18.4451C23.451 19.6072 23.9797 21.1256 24.0172 23.0001C24.0172 24.6872 23.5454 26.2055 22.6013 27.5551C21.6573 28.9048 20.3164 29.9731 18.5794 30.7605C16.8803 31.5103 14.9165 31.885 12.6883 31.885ZM36.4486 6.24199C37.4683 4.48003 38.9789 3.01795 40.9802 1.85575C43.0194 0.656096 45.3797 0.0562555 48.061 0.0562555C50.8175 0.0562555 53.3099 0.712321 55.538 2.02445C57.8037 3.33661 59.5785 5.19235 60.8626 7.59162C62.1467 9.95347 62.7885 12.7092 62.7885 15.8581C62.7885 18.9697 62.1467 21.7439 60.8626 24.181C59.5785 26.6178 57.8037 28.5109 55.538 29.8605C53.3099 31.2102 50.8175 31.885 48.061 31.885C45.4175 31.885 43.0762 31.3039 41.037 30.1418C39.0353 28.9421 37.5062 27.4614 36.4486 25.6994V46H31.294V0.562367H36.4486V6.24199ZM57.5204 15.8581C57.5204 13.5339 57.0486 11.5094 56.1045 9.78477C55.1605 8.06041 53.8764 6.7481 52.2526 5.84845C50.6667 4.94867 48.9105 4.49878 46.9845 4.49878C45.0964 4.49878 43.3405 4.96739 41.7167 5.90458C40.1305 6.80454 38.8467 8.13536 37.8648 9.89734C36.9208 11.6217 36.4486 13.6276 36.4486 15.9146C36.4486 18.2388 36.9208 20.282 37.8648 22.044C38.8467 23.7684 40.1305 25.0995 41.7167 26.0368C43.3405 26.9364 45.0964 27.3864 46.9845 27.3864C48.9105 27.3864 50.6667 26.9364 52.2526 26.0368C53.8764 25.0995 55.1605 23.7684 56.1045 22.044C57.0486 20.282 57.5204 18.22 57.5204 15.8581ZM67.6477 15.8581C67.6477 12.7092 68.2896 9.95347 69.5736 7.59162C70.8577 5.19235 72.6136 3.33661 74.8417 2.02445C77.1074 0.712321 79.6187 0.0562555 82.3755 0.0562555C85.0944 0.0562555 87.4544 0.637344 89.456 1.79952C91.4574 2.9617 92.949 4.42381 93.9309 6.18585V0.562367H99.1422V31.3789H93.9309V25.6429C92.9114 27.4426 91.382 28.9421 89.3428 30.1418C87.3411 31.3039 84.9998 31.885 82.3187 31.885C79.562 31.885 77.0695 31.2102 74.8417 29.8605C72.6136 28.5109 70.8577 26.6178 69.5736 24.181C68.2896 21.7439 67.6477 18.9697 67.6477 15.8581ZM93.9309 15.9146C93.9309 13.59 93.459 11.5656 92.515 9.84121C91.5706 8.11654 90.2868 6.80454 88.6631 5.90458C87.0768 4.96739 85.3209 4.49878 83.3949 4.49878C81.469 4.49878 79.7131 4.94867 78.1271 5.84845C76.5409 6.7481 75.2757 8.06041 74.3317 9.78477C73.3877 11.5094 72.9158 13.5339 72.9158 15.8581C72.9158 18.22 73.3877 20.282 74.3317 22.044C75.2757 23.7684 76.5409 25.0995 78.1271 26.0368C79.7131 26.9364 81.469 27.3864 83.3949 27.3864C85.3209 27.3864 87.0768 26.9364 88.6631 26.0368C90.2868 25.0995 91.5706 23.7684 92.515 22.044C93.459 20.282 93.9309 18.2388 93.9309 15.9146ZM113.007 5.56717C113.914 3.80522 115.198 2.43683 116.859 1.46211C118.559 0.487392 120.617 0 123.034 0V5.28608H121.674C115.896 5.28608 113.007 8.39782 113.007 14.6211V31.3789H107.853V0.562367H113.007V5.56717ZM134.139 5.56717C135.045 3.80522 136.329 2.43683 137.991 1.46211C139.69 0.487392 141.748 0 144.165 0V5.28608H142.806C137.028 5.28608 134.139 8.39782 134.139 14.6211V31.3789H128.984V0.562367H134.139V5.56717ZM163.653 31.885C160.746 31.885 158.102 31.229 155.723 29.917C153.382 28.6047 151.532 26.7489 150.172 24.3498C148.85 21.9126 148.189 19.1011 148.189 15.9146C148.189 12.7653 148.869 9.9911 150.229 7.59162C151.626 5.15485 153.514 3.29911 155.893 2.02445C158.272 0.712321 160.935 0.0562555 163.88 0.0562555C166.826 0.0562555 169.488 0.712321 171.867 2.02445C174.246 3.29911 176.115 5.1361 177.475 7.53549C178.872 9.93466 179.571 12.7277 179.571 15.9146C179.571 19.1011 178.853 21.9126 177.418 24.3498C176.021 26.7489 174.114 28.6047 171.697 29.917C169.28 31.229 166.599 31.885 163.653 31.885ZM163.653 27.3864C165.504 27.3864 167.241 26.9553 168.865 26.0929C170.489 25.2306 171.792 23.9371 172.773 22.2127C173.793 20.4881 174.303 18.3887 174.303 15.9146C174.303 13.4401 173.812 11.3407 172.83 9.61607C171.848 7.89171 170.564 6.61702 168.978 5.79231C167.392 4.92992 165.674 4.49878 163.823 4.49878C161.935 4.49878 160.198 4.92992 158.612 5.79231C157.064 6.61702 155.817 7.89171 154.873 9.61607C153.929 11.3407 153.458 13.4401 153.458 15.9146C153.458 18.4263 153.91 20.5445 154.817 22.2689C155.761 23.9935 157.007 25.2867 158.555 26.1491C160.104 26.9738 161.803 27.3864 163.653 27.3864ZM227.7 0.562367L218.013 31.3789H212.688L205.211 6.9168L197.734 31.3789H192.409L182.666 0.562367H187.934L195.072 26.4303L202.775 0.562367H208.043L215.577 26.4865L222.6 0.562367H227.7Z" fill="#595460"/>
<path d="M239.652 0.137566H244.371L233.358 9.50992V7.80589L239.652 0.137566Z" fill="#595460"/>
<path d="M239.652 31.3789H244.371L233.358 22.0064V23.7107L239.652 31.3789Z" fill="#595460"/>
</svg>
