<svg width="97" height="73" viewBox="0 0 97 73" fill="none" xmlns="http://www.w3.org/2000/svg">
<path d="M94.3275 28.835C95.2781 28.6428 95.8931 27.7149 95.7017 26.7629C95.5099 25.8103 94.5838 25.1942 93.6335 25.3864L94.3275 28.835ZM1.6966 43.9627C0.746121 44.1549 0.13099 45.0823 0.322673 46.0349C0.514357 46.9869 1.44027 47.6035 2.39075 47.4113L1.6966 43.9627ZM88.3209 58.9013C89.2826 59.0253 90.1622 58.3442 90.2855 57.3806C90.4088 56.4171 89.7294 55.5359 88.7677 55.4118L88.3209 58.9013ZM1.97926 44.256C1.01752 44.1325 0.137851 44.8132 0.0144649 45.7772C-0.108922 46.7407 0.570696 47.6219 1.53243 47.7455L1.97926 44.256ZM31.1605 20.7716C30.2542 20.4264 29.2401 20.8828 28.8956 21.7909C28.551 22.699 29.0064 23.7149 29.9127 24.0601L31.1605 20.7716ZM51.7976 18.66L51.4794 16.9302L51.7976 18.66ZM69.3612 22.4158L68.1112 23.6511L69.3612 22.4158ZM74.3214 31.7625C74.8151 32.5985 75.8918 32.8751 76.7262 32.3803C77.5605 31.8852 77.8366 30.8064 77.3428 29.9705L74.3214 31.7625ZM93.4887 36.5C93.4887 54.7381 78.9392 69.4819 61.0416 69.4819V73C80.9235 73 97 56.6357 97 36.5H93.4887ZM61.0416 69.4819C43.1443 69.4819 28.5947 54.7381 28.5947 36.5H25.0834C25.0834 56.6357 41.1599 73 61.0416 73V69.4819ZM28.5947 36.5C28.5947 18.2618 43.1443 3.51807 61.0416 3.51807V0C41.1599 0 25.0834 16.3644 25.0834 36.5H28.5947ZM61.0416 3.51807C78.9392 3.51807 93.4887 18.2618 93.4887 36.5H97C97 16.3644 80.9235 0 61.0416 0V3.51807ZM60.2103 26.1718C60.2103 29.3715 57.6628 31.9243 54.5707 31.9243V35.4424C59.6472 35.4424 63.7216 31.2686 63.7216 26.1718H60.2103ZM54.5707 31.9243C51.479 31.9243 48.9315 29.3715 48.9315 26.1718H45.4202C45.4202 31.2686 49.4947 35.4424 54.5707 35.4424V31.9243ZM48.9315 26.1718C48.9315 22.9717 51.479 20.4189 54.5707 20.4189V16.901C49.4947 16.901 45.4202 21.0746 45.4202 26.1718H48.9315ZM54.5707 20.4189C57.6628 20.4189 60.2103 22.9717 60.2103 26.1718H63.7216C63.7216 21.0746 59.6472 16.901 54.5707 16.901V20.4189ZM84.2447 41.1949C84.2447 44.3946 81.6973 46.9474 78.6051 46.9474V50.4654C83.6816 50.4654 87.756 46.2921 87.756 41.1949H84.2447ZM78.6051 46.9474C75.513 46.9474 72.9656 44.3946 72.9656 41.1949H69.4542C69.4542 46.2921 73.5287 50.4654 78.6051 50.4654V46.9474ZM72.9656 41.1949C72.9656 37.9947 75.513 35.4424 78.6051 35.4424V31.9243C73.5287 31.9243 69.4542 36.0976 69.4542 41.1949H72.9656ZM78.6051 35.4424C81.6973 35.4424 84.2447 37.9947 84.2447 41.1949H87.756C87.756 36.0976 83.6816 31.9243 78.6051 31.9243V35.4424ZM93.6335 25.3864L1.6966 43.9627L2.39075 47.4113L94.3275 28.835L93.6335 25.3864ZM88.7677 55.4118L1.97926 44.256L1.53243 47.7455L88.3209 58.9013L88.7677 55.4118ZM29.9127 24.0601C34.1304 25.6665 37.3534 25.0944 40.6893 23.9651C44.0109 22.8402 47.1961 21.2984 52.1159 20.3899L51.4794 16.9302C46.2309 17.8995 42.4832 19.644 39.5651 20.6322C36.6614 21.6155 34.338 21.9822 31.1605 20.7716L29.9127 24.0601ZM52.1159 20.3899C61.121 18.7269 65.802 21.3054 68.1112 23.6511L70.6112 21.1806C67.3742 17.8927 61.4651 15.0859 51.4794 16.9302L52.1159 20.3899ZM68.1112 23.6511C69.8673 25.4343 71.4223 27.4621 72.5481 29.0628C73.1078 29.8588 73.555 30.5404 73.8609 31.0206C74.0137 31.2603 74.1309 31.4494 74.209 31.5769C74.2481 31.6407 74.277 31.6886 74.2959 31.7203C74.3056 31.7356 74.3121 31.7471 74.3165 31.7541C74.3187 31.7581 74.32 31.7603 74.3209 31.7616C74.3214 31.7625 74.3214 31.7629 74.3214 31.7629V31.7625C74.3214 31.7625 74.3214 31.7625 75.8321 30.8662C77.3428 29.9705 77.3428 29.97 77.3428 29.97C77.3424 29.97 77.3424 29.9696 77.3424 29.9696C77.342 29.9691 77.342 29.9687 77.3415 29.9683C77.3411 29.9669 77.3402 29.9656 77.3393 29.9643C77.3371 29.9612 77.3349 29.9568 77.3314 29.9511C77.3248 29.9401 77.3156 29.9252 77.3042 29.9054C77.2805 29.8662 77.2463 29.8099 77.2024 29.7378C77.1142 29.5936 76.986 29.3869 76.821 29.1279C76.4913 28.6103 76.0138 27.8834 75.4186 27.0364C74.2331 25.3508 72.553 23.1529 70.6112 21.1806L68.1112 23.6511Z" fill="#595460"/>
</svg>
