<svg width="115" height="21" viewBox="0 0 115 21" fill="none" xmlns="http://www.w3.org/2000/svg">
<g clip-path="url(#clip0_26_971)">
<path d="M38.4204 15.18C37.5804 15.18 36.8271 15.04 36.1604 14.76C35.4937 14.4667 34.9671 14.0667 34.5804 13.56C34.1937 13.04 33.9804 12.4467 33.9404 11.78H35.8204C35.8737 12.3267 36.1271 12.7733 36.5804 13.12C37.0471 13.4667 37.6537 13.64 38.4004 13.64C39.0937 13.64 39.6404 13.4867 40.0404 13.18C40.4404 12.8733 40.6404 12.4867 40.6404 12.02C40.6404 11.54 40.4271 11.1867 40.0004 10.96C39.5737 10.72 38.9137 10.4867 38.0204 10.26C37.2071 10.0467 36.5404 9.83336 36.0204 9.62003C35.5137 9.39336 35.0737 9.0667 34.7004 8.64003C34.3404 8.20003 34.1604 7.6267 34.1604 6.92003C34.1604 6.36003 34.3271 5.8467 34.6604 5.38003C34.9937 4.91336 35.4671 4.5467 36.0804 4.28003C36.6937 4.00003 37.3937 3.86003 38.1804 3.86003C39.3937 3.86003 40.3737 4.1667 41.1204 4.78003C41.8671 5.39336 42.2671 6.23336 42.3204 7.30003H40.5004C40.4604 6.7267 40.2271 6.2667 39.8004 5.92003C39.3871 5.57336 38.8271 5.40003 38.1204 5.40003C37.4671 5.40003 36.9471 5.54003 36.5604 5.82003C36.1737 6.10003 35.9804 6.4667 35.9804 6.92003C35.9804 7.28003 36.0937 7.58003 36.3204 7.82003C36.5604 8.0467 36.8537 8.23336 37.2004 8.38003C37.5604 8.51336 38.0537 8.6667 38.6804 8.84003C39.4671 9.05336 40.1071 9.2667 40.6004 9.48003C41.0937 9.68003 41.5137 9.9867 41.8604 10.4C42.2204 10.8133 42.4071 11.3533 42.4204 12.02C42.4204 12.62 42.2537 13.16 41.9204 13.64C41.5871 14.12 41.1137 14.5 40.5004 14.78C39.9004 15.0467 39.2071 15.18 38.4204 15.18ZM46.8096 6.06003C47.1696 5.43336 47.703 4.91336 48.4096 4.50003C49.1296 4.07336 49.963 3.86003 50.9096 3.86003C51.883 3.86003 52.763 4.09336 53.5496 4.56003C54.3496 5.0267 54.9763 5.6867 55.4296 6.54003C55.883 7.38003 56.1096 8.36003 56.1096 9.48003C56.1096 10.5867 55.883 11.5733 55.4296 12.44C54.9763 13.3067 54.3496 13.98 53.5496 14.46C52.763 14.94 51.883 15.18 50.9096 15.18C49.9763 15.18 49.1496 14.9733 48.4296 14.56C47.723 14.1333 47.183 13.6067 46.8096 12.98V20.2H44.9896V4.04003H46.8096V6.06003ZM54.2496 9.48003C54.2496 8.65336 54.083 7.93336 53.7496 7.32003C53.4163 6.7067 52.963 6.24003 52.3896 5.92003C51.8296 5.60003 51.2096 5.44003 50.5296 5.44003C49.863 5.44003 49.243 5.6067 48.6696 5.94003C48.1096 6.26003 47.6563 6.73336 47.3096 7.36003C46.9763 7.97336 46.8096 8.6867 46.8096 9.50003C46.8096 10.3267 46.9763 11.0533 47.3096 11.68C47.6563 12.2933 48.1096 12.7667 48.6696 13.1C49.243 13.42 49.863 13.58 50.5296 13.58C51.2096 13.58 51.8296 13.42 52.3896 13.1C52.963 12.7667 53.4163 12.2933 53.7496 11.68C54.083 11.0533 54.2496 10.32 54.2496 9.48003ZM57.8252 9.48003C57.8252 8.36003 58.0519 7.38003 58.5052 6.54003C58.9586 5.6867 59.5786 5.0267 60.3652 4.56003C61.1652 4.09336 62.0519 3.86003 63.0252 3.86003C63.9852 3.86003 64.8186 4.0667 65.5252 4.48003C66.2319 4.89336 66.7586 5.41336 67.1052 6.04003V4.04003H68.9452V15H67.1052V12.96C66.7452 13.6 66.2052 14.1333 65.4852 14.56C64.7786 14.9733 63.9519 15.18 63.0052 15.18C62.0319 15.18 61.1519 14.94 60.3652 14.46C59.5786 13.98 58.9586 13.3067 58.5052 12.44C58.0519 11.5733 57.8252 10.5867 57.8252 9.48003ZM67.1052 9.50003C67.1052 8.67336 66.9386 7.95336 66.6052 7.34003C66.2719 6.7267 65.8186 6.26003 65.2452 5.94003C64.6852 5.6067 64.0652 5.44003 63.3852 5.44003C62.7052 5.44003 62.0852 5.60003 61.5252 5.92003C60.9652 6.24003 60.5186 6.7067 60.1852 7.32003C59.8519 7.93336 59.6852 8.65336 59.6852 9.48003C59.6852 10.32 59.8519 11.0533 60.1852 11.68C60.5186 12.2933 60.9652 12.7667 61.5252 13.1C62.0852 13.42 62.7052 13.58 63.3852 13.58C64.0652 13.58 64.6852 13.42 65.2452 13.1C65.8186 12.7667 66.2719 12.2933 66.6052 11.68C66.9386 11.0533 67.1052 10.3267 67.1052 9.50003ZM73.8409 5.82003C74.1609 5.19336 74.6142 4.7067 75.2009 4.36003C75.8009 4.01336 76.5275 3.84003 77.3809 3.84003V5.72003H76.9009C74.8609 5.72003 73.8409 6.8267 73.8409 9.04003V15H72.0209V4.04003H73.8409V5.82003ZM81.3018 5.82003C81.6218 5.19336 82.0751 4.7067 82.6618 4.36003C83.2618 4.01336 83.9885 3.84003 84.8418 3.84003V5.72003H84.3618C82.3218 5.72003 81.3018 6.8267 81.3018 9.04003V15H79.4818V4.04003H81.3018V5.82003ZM91.7227 15.18C90.6961 15.18 89.7627 14.9467 88.9227 14.48C88.0961 14.0133 87.4427 13.3533 86.9627 12.5C86.4961 11.6333 86.2627 10.6333 86.2627 9.50003C86.2627 8.38003 86.5027 7.39336 86.9827 6.54003C87.4761 5.67336 88.1427 5.01336 88.9827 4.56003C89.8227 4.09336 90.7627 3.86003 91.8027 3.86003C92.8427 3.86003 93.7827 4.09336 94.6227 4.56003C95.4627 5.01336 96.1227 5.6667 96.6027 6.52003C97.0961 7.37336 97.3427 8.3667 97.3427 9.50003C97.3427 10.6333 97.0894 11.6333 96.5827 12.5C96.0894 13.3533 95.4161 14.0133 94.5627 14.48C93.7094 14.9467 92.7627 15.18 91.7227 15.18ZM91.7227 13.58C92.3761 13.58 92.9894 13.4267 93.5627 13.12C94.1361 12.8133 94.5961 12.3533 94.9427 11.74C95.3027 11.1267 95.4827 10.38 95.4827 9.50003C95.4827 8.62003 95.3094 7.87336 94.9627 7.26003C94.6161 6.6467 94.1627 6.19336 93.6027 5.90003C93.0427 5.59336 92.4361 5.44003 91.7827 5.44003C91.1161 5.44003 90.5027 5.59336 89.9427 5.90003C89.3961 6.19336 88.9561 6.6467 88.6227 7.26003C88.2894 7.87336 88.1227 8.62003 88.1227 9.50003C88.1227 10.3933 88.2827 11.1467 88.6027 11.76C88.9361 12.3733 89.3761 12.8333 89.9227 13.14C90.4694 13.4333 91.0694 13.58 91.7227 13.58ZM114.335 4.04003L110.915 15H109.035L106.395 6.30003L103.755 15H101.875L98.4357 4.04003H100.295L102.815 13.24L105.535 4.04003H107.395L110.055 13.26L112.535 4.04003H114.335Z" fill="white"/>
<path d="M25.7605 8.22285C26.0313 8.16852 26.2067 7.905 26.1524 7.63425C26.098 7.36351 25.8345 7.18807 25.5638 7.2424L25.7605 8.22285ZM0.978652 12.1758C0.707907 12.2301 0.532467 12.4936 0.586797 12.7644C0.641126 13.0351 0.904651 13.2106 1.17539 13.1562L0.978652 12.1758ZM24.1451 16.208C24.419 16.243 24.6694 16.0493 24.7044 15.7753C24.7393 15.5014 24.5456 15.251 24.2717 15.2161L24.1451 16.208ZM1.06336 12.2533C0.789449 12.2184 0.539047 12.4121 0.504079 12.686C0.469111 12.9599 0.66282 13.2103 0.936739 13.2453L1.06336 12.2533ZM8.8733 6.01821C8.61502 5.92051 8.32644 6.05068 8.22873 6.30896C8.13103 6.56724 8.2612 6.85582 8.51948 6.95352L8.8733 6.01821ZM14.3819 5.48842L14.2917 4.99662L14.3819 5.48842ZM19.0786 6.48586L18.7235 6.83787L19.0786 6.48586ZM20.3793 8.98566C20.5204 9.22299 20.8273 9.30095 21.0646 9.15978C21.3019 9.01862 21.3799 8.71178 21.2387 8.47445L20.3793 8.98566ZM25.5001 10.2262C25.5001 15.0496 21.625 18.9524 16.8539 18.9524V19.9524C22.1854 19.9524 26.5001 15.5937 26.5001 10.2262H25.5001ZM16.8539 18.9524C12.0828 18.9524 8.20761 15.0496 8.20761 10.2262H7.20761C7.20761 15.5937 11.5223 19.9524 16.8539 19.9524V18.9524ZM8.20761 10.2262C8.20761 5.40274 12.0828 1.5 16.8539 1.5V0.5C11.5223 0.5 7.20761 4.85868 7.20761 10.2262H8.20761ZM16.8539 1.5C21.625 1.5 25.5001 5.40274 25.5001 10.2262H26.5001C26.5001 4.85868 22.1854 0.5 16.8539 0.5V1.5ZM16.6011 7.48327C16.6011 8.31297 15.9355 8.97812 15.1235 8.97812V9.97812C16.4959 9.97812 17.6011 8.85702 17.6011 7.48327H16.6011ZM15.1235 8.97812C14.3116 8.97812 13.646 8.31296 13.646 7.48327H12.646C12.646 8.85702 13.7511 9.97812 15.1235 9.97812V8.97812ZM13.646 7.48327C13.646 6.65357 14.3116 5.98842 15.1235 5.98842V4.98842C13.7511 4.98842 12.646 6.10951 12.646 7.48327H13.646ZM15.1235 5.98842C15.9355 5.98842 16.6011 6.65357 16.6011 7.48327H17.6011C17.6011 6.10951 16.4959 4.98842 15.1235 4.98842V5.98842ZM23.0281 11.473C23.0281 12.3027 22.3625 12.9678 21.5506 12.9678V13.9678C22.923 13.9678 24.0281 12.8467 24.0281 11.473H23.0281ZM21.5506 12.9678C20.7386 12.9678 20.073 12.3027 20.073 11.473H19.073C19.073 12.8467 20.1782 13.9678 21.5506 13.9678V12.9678ZM20.073 11.473C20.073 10.6433 20.7386 9.97812 21.5506 9.97812V8.97812C20.1782 8.97812 19.073 10.0992 19.073 11.473H20.073ZM21.5506 9.97812C22.3625 9.97812 23.0281 10.6433 23.0281 11.473H24.0281C24.0281 10.0992 22.923 8.97812 21.5506 8.97812V9.97812ZM25.5638 7.2424L0.978652 12.1758L1.17539 13.1562L25.7605 8.22285L25.5638 7.2424ZM24.2717 15.2161L1.06336 12.2533L0.936739 13.2453L24.1451 16.208L24.2717 15.2161ZM8.51948 6.95352C9.65576 7.38337 10.5249 7.22977 11.4204 6.92863C12.312 6.62884 13.1591 6.22104 14.4721 5.98021L14.2917 4.99662C12.8856 5.25453 11.8788 5.71949 11.1017 5.98078C10.3288 6.24069 9.71459 6.33646 8.8733 6.01821L8.51948 6.95352ZM14.4721 5.98021C16.8725 5.53994 18.1142 6.22318 18.7235 6.83787L19.4337 6.13385C18.5599 5.2524 16.9696 4.50546 14.2917 4.99662L14.4721 5.98021ZM18.7235 6.83787C19.1913 7.30977 19.6061 7.8467 19.9066 8.27094C20.056 8.48192 20.1753 8.66249 20.2568 8.78963C20.2976 8.85314 20.3288 8.90318 20.3495 8.93685C20.3599 8.95368 20.3677 8.9664 20.3727 8.97466C20.3752 8.97879 20.377 8.9818 20.3781 8.98365C20.3786 8.98458 20.379 8.98521 20.3792 8.98555C20.3793 8.98572 20.3794 8.98581 20.3794 8.98583C20.3794 8.98584 20.3794 8.98583 20.3794 8.9858C20.3794 8.98579 20.3793 8.98575 20.3793 8.98575C20.3793 8.98571 20.3793 8.98566 20.809 8.73006C21.2387 8.47445 21.2387 8.4744 21.2387 8.47434C21.2386 8.47431 21.2386 8.47425 21.2386 8.4742C21.2385 8.47409 21.2384 8.47397 21.2384 8.47383C21.2382 8.47354 21.238 8.47319 21.2377 8.47275C21.2372 8.47188 21.2365 8.47071 21.2356 8.46925C21.2339 8.46632 21.2314 8.4622 21.2282 8.45696C21.2219 8.44647 21.2127 8.43143 21.2009 8.41222C21.1772 8.37381 21.1428 8.31865 21.0985 8.2497C21.0101 8.1119 20.8823 7.91844 20.7227 7.69305C20.4051 7.24455 19.9547 6.65939 19.4337 6.13385L18.7235 6.83787Z" fill="white"/>
</g>
<defs>
<clipPath id="clip0_26_971">
<rect width="115" height="21" fill="white"/>
</clipPath>
</defs>
</svg>
