<svg width="30" height="30" viewBox="0 0 30 30" fill="none" xmlns="http://www.w3.org/2000/svg">
<path d="M7.79307 25.7812C7.43331 25.7806 7.07993 25.6863 6.76768 25.5076C6.06455 25.1092 5.62744 24.3357 5.62744 23.4961V6.50389C5.62744 5.6619 6.06455 4.8908 6.76768 4.49236C7.08737 4.30864 7.45054 4.21415 7.81923 4.21879C8.18793 4.22343 8.54861 4.32702 8.86357 4.51873L23.386 13.2117C23.6887 13.4015 23.9382 13.665 24.1111 13.9776C24.2841 14.2902 24.3748 14.6416 24.3748 14.9988C24.3748 15.356 24.2841 15.7074 24.1111 16.02C23.9382 16.3326 23.6887 16.5961 23.386 16.7859L8.86123 25.4812C8.5389 25.6761 8.16972 25.7798 7.79307 25.7812Z" fill="white"/>
</svg>
